<svg width="1200" height="600" viewBox="0 0 1200 600" fill="none" xmlns="http://www.w3.org/2000/svg">
<g clip-path="url(#clip0_6135_10712)">
<rect width="1200" height="600" fill="white"/>
<path d="M1058.79 139.004L1139.48 77.2242C1214.66 19.6595 1320.91 32.6359 1376.81 106.208L1436.8 185.167C1492.69 258.739 1477.06 365.046 1401.88 422.611L1321.19 484.39C1246.01 541.955 1139.75 528.979 1083.86 455.407L1023.87 376.447C967.98 302.876 983.614 196.569 1058.79 139.004Z" stroke="#F0FDF4" stroke-width="2.5"/>
<path d="M243.756 385.089L299.999 363.497C352.405 343.378 410.725 368.644 430.26 419.929L451.225 474.969C470.76 526.255 444.113 584.139 391.707 604.257L335.464 625.849C283.058 645.968 224.738 620.703 205.203 569.417L184.238 514.377C164.703 463.092 191.35 405.207 243.756 385.089Z" stroke="#F0FDF4" stroke-width="2.5"/>
<path d="M699.013 359.497L530.541 450.215C373.563 534.744 179.773 478.734 97.6971 325.114L9.61129 160.245C-72.4642 6.62442 -11.7441 -186.433 145.233 -270.962L313.706 -361.68C470.683 -446.208 664.474 -390.198 746.549 -236.578L834.635 -71.7089C916.711 81.9113 855.991 274.969 699.013 359.497Z" stroke="#F0FDF4" stroke-width="2.5"/>
<path d="M751.659 51.9886L842.173 17.2401C926.512 -15.1376 1020.37 25.5228 1051.81 108.058L1085.55 196.637C1116.98 279.171 1074.1 372.327 989.762 404.704L899.248 439.453C814.909 471.83 721.053 431.17 689.615 348.635L655.875 260.056C624.436 177.521 667.32 84.3662 751.659 51.9886Z" stroke="#F0FDF4" stroke-width="2.5"/>
<path d="M1044.84 -37.4061L1067.49 -54.7469C1088.59 -70.9045 1118.42 -67.2622 1134.11 -46.6116L1150.94 -24.4487C1166.63 -3.7981 1162.24 26.0409 1141.14 42.1985L1118.49 59.5393C1097.39 75.6969 1067.57 72.0546 1051.88 51.404L1035.04 29.2411C1019.35 8.59051 1023.74 -21.2485 1044.84 -37.4061Z" stroke="#F0FDF4" stroke-width="2.5"/>
<path d="M874.919 -18.292C874.919 -28.4429 866.737 -36.66 856.659 -36.66C846.58 -36.66 838.398 -28.4429 838.398 -18.292C838.398 -8.14106 846.58 0.0760803 856.659 0.0760803C866.737 0.0760803 874.919 -8.14106 874.919 -18.292Z" stroke="#F0FDF4" stroke-width="2.5"/>
<path d="M1046.96 385.272C1046.96 375.121 1038.78 366.904 1028.7 366.904C1018.62 366.904 1010.44 375.121 1010.44 385.272C1010.44 395.423 1018.62 403.64 1028.7 403.64C1038.78 403.64 1046.96 395.423 1046.96 385.272Z" stroke="#F0FDF4" stroke-width="2.5"/>
<path d="M658.612 248.525C658.612 244.932 655.717 242.031 652.16 242.031C648.603 242.031 645.708 244.932 645.708 248.525C645.708 252.118 648.603 255.019 652.16 255.019C655.717 255.019 658.612 252.118 658.612 248.525Z" stroke="#F0FDF4" stroke-width="2.5"/>
<path d="M1059.01 51.6329C1059.01 48.0393 1056.11 45.138 1052.56 45.138C1049 45.138 1046.11 48.0393 1046.11 51.6329C1046.11 55.2264 1049 58.1277 1052.56 58.1277C1056.11 58.1277 1059.01 55.2264 1059.01 51.6329Z" stroke="#F0FDF4" stroke-width="2.5"/>
<path d="M803.168 -313.832C874.293 -384.958 909.856 -420.521 946.098 -443.057C1066.05 -517.648 1217.95 -517.647 1337.9 -443.057C1374.14 -420.521 1409.71 -384.958 1480.83 -313.832C1551.96 -242.707 1587.52 -207.144 1610.06 -170.902C1684.65 -50.9511 1684.65 100.951 1610.06 220.902C1587.52 257.144 1551.96 292.706 1480.83 363.832C1409.71 434.958 1374.14 470.521 1337.9 493.057C1217.95 567.648 1066.05 567.647 946.098 493.057C909.856 470.521 874.293 434.958 803.168 363.832L803.159 363.825C732.04 292.704 696.478 257.142 673.943 220.902C599.353 100.951 599.352 -50.9511 673.943 -170.902C696.477 -207.142 732.037 -242.702 803.154 -313.818L803.168 -313.832Z" fill="#DCFCE7"/>
<path d="M852.718 -264.283C913.442 -325.007 943.804 -355.369 974.746 -374.61C1077.16 -438.293 1206.84 -438.292 1309.25 -374.61C1340.2 -355.369 1370.56 -325.007 1431.28 -264.283C1492.01 -203.558 1522.37 -173.196 1541.61 -142.254C1605.29 -39.8443 1605.29 89.8443 1541.61 192.254C1522.37 223.196 1492.01 253.558 1431.28 314.282C1370.56 375.007 1340.2 405.369 1309.25 424.61C1206.84 488.293 1077.16 488.292 974.746 424.61C943.804 405.369 913.442 375.007 852.718 314.282L852.71 314.276C791.991 253.556 761.63 223.195 742.39 192.254C678.708 89.8443 678.707 -39.8443 742.39 -142.254C761.629 -173.194 791.988 -203.554 852.705 -264.27L852.718 -264.283Z" fill="#02C652"/>
<path d="M43.456 293V259.656H52.224V262.408C54.7413 260.147 57.856 259.016 61.568 259.016C64.1707 259.016 66.4533 259.592 68.416 260.744C70.4213 261.853 71.9787 263.411 73.088 265.416C74.1973 267.379 74.752 269.683 74.752 272.328V293H65.984V273.608C65.984 271.432 65.3653 269.725 64.128 268.488C62.8907 267.208 61.2053 266.568 59.072 266.568C57.5787 266.568 56.256 266.867 55.104 267.464C53.952 268.019 52.992 268.829 52.224 269.896V293H43.456ZM94.009 293.64C91.449 293.64 89.1663 293.085 87.161 291.976C85.1983 290.824 83.641 289.245 82.489 287.24C81.3797 285.235 80.825 282.931 80.825 280.328V259.656H89.593V279.048C89.593 281.181 90.2117 282.888 91.449 284.168C92.729 285.448 94.4357 286.088 96.569 286.088C98.0197 286.088 99.321 285.811 100.473 285.256C101.668 284.659 102.649 283.827 103.417 282.76V259.656H112.185V293H103.417V290.312C100.857 292.531 97.721 293.64 94.009 293.64ZM115.434 293L128.235 276.04L115.755 259.656H125.931L133.291 269.576L140.587 259.656H150.443L138.155 275.912L151.211 293H140.971L133.099 282.376L125.227 293H115.434ZM169.702 293.512C165.99 293.512 163.174 292.68 161.254 291.016C159.376 289.309 158.438 286.835 158.438 283.592V266.952H151.59V259.656H158.438V251.144L167.206 249.16V259.656H176.742V266.952H167.206V281.8C167.206 283.336 167.547 284.445 168.23 285.128C168.912 285.768 170.107 286.088 171.814 286.088C172.667 286.088 173.435 286.045 174.118 285.96C174.843 285.832 175.632 285.619 176.486 285.32V292.552C175.59 292.851 174.459 293.085 173.094 293.256C171.771 293.427 170.64 293.512 169.702 293.512ZM180.062 278.472V271.048H204.126V278.472H180.062ZM227.599 306.696C225.039 306.696 222.564 306.419 220.175 305.864C217.786 305.352 215.631 304.605 213.711 303.624L216.783 296.84C218.618 297.736 220.41 298.397 222.159 298.824C223.908 299.251 225.658 299.464 227.407 299.464C230.01 299.464 231.972 298.909 233.295 297.8C234.66 296.691 235.343 295.027 235.343 292.808V290.184C232.612 292.189 229.562 293.192 226.191 293.192C223.034 293.192 220.175 292.445 217.615 290.952C215.098 289.416 213.071 287.347 211.535 284.744C210.042 282.141 209.295 279.261 209.295 276.104C209.295 272.947 210.042 270.088 211.535 267.528C213.071 264.968 215.14 262.941 217.743 261.448C220.346 259.912 223.247 259.144 226.447 259.144C228.068 259.144 229.647 259.379 231.183 259.848C232.719 260.317 234.148 260.979 235.471 261.832V259.656H244.111V292.936C244.111 297.331 242.682 300.723 239.823 303.112C237.007 305.501 232.932 306.696 227.599 306.696ZM227.535 285.768C229.156 285.768 230.628 285.512 231.951 285C233.274 284.445 234.404 283.677 235.343 282.696V269.64C234.404 268.701 233.252 267.976 231.887 267.464C230.564 266.909 229.135 266.632 227.599 266.632C225.764 266.632 224.122 267.059 222.671 267.912C221.22 268.723 220.068 269.853 219.215 271.304C218.362 272.712 217.935 274.312 217.935 276.104C217.935 277.939 218.34 279.581 219.151 281.032C220.004 282.483 221.156 283.635 222.607 284.488C224.1 285.341 225.743 285.768 227.535 285.768ZM266.764 293.512C263.052 293.512 260.236 292.68 258.316 291.016C256.439 289.309 255.5 286.835 255.5 283.592V266.952H248.652V259.656H255.5V251.144L264.268 249.16V259.656H273.804V266.952H264.268V281.8C264.268 283.336 264.609 284.445 265.292 285.128C265.975 285.768 267.169 286.088 268.876 286.088C269.729 286.088 270.497 286.045 271.18 285.96C271.905 285.832 272.695 285.619 273.548 285.32V292.552C272.652 292.851 271.521 293.085 270.156 293.256C268.833 293.427 267.703 293.512 266.764 293.512ZM288.705 293.576C286.316 293.576 284.204 293.149 282.369 292.296C280.534 291.4 279.105 290.184 278.081 288.648C277.057 287.112 276.545 285.341 276.545 283.336C276.545 280.136 277.74 277.661 280.129 275.912C282.561 274.12 285.889 273.224 290.113 273.224C293.014 273.224 295.745 273.672 298.305 274.568V272.136C298.305 270.216 297.708 268.765 296.513 267.784C295.318 266.803 293.569 266.312 291.265 266.312C289.857 266.312 288.342 266.547 286.721 267.016C285.1 267.443 283.222 268.125 281.089 269.064L277.889 262.6C280.534 261.405 283.052 260.509 285.441 259.912C287.873 259.315 290.305 259.016 292.737 259.016C297.217 259.016 300.694 260.104 303.169 262.28C305.686 264.413 306.945 267.443 306.945 271.368V293H298.305V290.632C296.94 291.656 295.468 292.403 293.889 292.872C292.31 293.341 290.582 293.576 288.705 293.576ZM284.865 283.144C284.865 284.424 285.42 285.448 286.529 286.216C287.638 286.941 289.11 287.304 290.945 287.304C292.396 287.304 293.74 287.133 294.977 286.792C296.214 286.408 297.324 285.853 298.305 285.128V280.264C297.238 279.837 296.129 279.517 294.977 279.304C293.825 279.091 292.588 278.984 291.265 278.984C289.26 278.984 287.681 279.368 286.529 280.136C285.42 280.861 284.865 281.864 284.865 283.144ZM330.349 306.696C327.789 306.696 325.314 306.419 322.925 305.864C320.536 305.352 318.381 304.605 316.461 303.624L319.533 296.84C321.368 297.736 323.16 298.397 324.909 298.824C326.658 299.251 328.408 299.464 330.157 299.464C332.76 299.464 334.722 298.909 336.045 297.8C337.41 296.691 338.093 295.027 338.093 292.808V290.184C335.362 292.189 332.312 293.192 328.941 293.192C325.784 293.192 322.925 292.445 320.365 290.952C317.848 289.416 315.821 287.347 314.285 284.744C312.792 282.141 312.045 279.261 312.045 276.104C312.045 272.947 312.792 270.088 314.285 267.528C315.821 264.968 317.89 262.941 320.493 261.448C323.096 259.912 325.997 259.144 329.197 259.144C330.818 259.144 332.397 259.379 333.933 259.848C335.469 260.317 336.898 260.979 338.221 261.832V259.656H346.861V292.936C346.861 297.331 345.432 300.723 342.573 303.112C339.757 305.501 335.682 306.696 330.349 306.696ZM330.285 285.768C331.906 285.768 333.378 285.512 334.701 285C336.024 284.445 337.154 283.677 338.093 282.696V269.64C337.154 268.701 336.002 267.976 334.637 267.464C333.314 266.909 331.885 266.632 330.349 266.632C328.514 266.632 326.872 267.059 325.421 267.912C323.97 268.723 322.818 269.853 321.965 271.304C321.112 272.712 320.685 274.312 320.685 276.104C320.685 277.939 321.09 279.581 321.901 281.032C322.754 282.483 323.906 283.635 325.357 284.488C326.85 285.341 328.493 285.768 330.285 285.768Z" fill="#19181B"/>
<path d="M49.768 338.264C48.536 338.264 47.384 338.04 46.312 337.592C45.256 337.144 44.328 336.528 43.528 335.744C42.728 334.944 42.104 334.024 41.656 332.984C41.208 331.928 40.984 330.8 40.984 329.6C40.984 328.4 41.2 327.28 41.632 326.24C42.08 325.184 42.704 324.264 43.504 323.48C44.304 322.68 45.232 322.056 46.288 321.608C47.344 321.16 48.488 320.936 49.72 320.936C51.048 320.936 52.304 321.192 53.488 321.704C54.672 322.216 55.672 322.928 56.488 323.84L54.76 325.52C54.152 324.8 53.4 324.248 52.504 323.864C51.624 323.464 50.696 323.264 49.72 323.264C48.84 323.264 48.024 323.424 47.272 323.744C46.536 324.064 45.888 324.512 45.328 325.088C44.768 325.648 44.328 326.312 44.008 327.08C43.704 327.848 43.552 328.688 43.552 329.6C43.552 330.496 43.704 331.336 44.008 332.12C44.328 332.888 44.768 333.56 45.328 334.136C45.904 334.712 46.568 335.16 47.32 335.48C48.072 335.8 48.888 335.96 49.768 335.96C50.76 335.96 51.656 335.752 52.456 335.336C53.272 334.92 53.936 334.352 54.448 333.632C54.96 332.896 55.272 332.072 55.384 331.16H49.792V328.952H58.024V329.816C58.024 331.016 57.816 332.128 57.4 333.152C56.984 334.176 56.4 335.072 55.648 335.84C54.912 336.608 54.04 337.208 53.032 337.64C52.024 338.056 50.936 338.264 49.768 338.264ZM66.1849 338.24C65.0009 338.24 63.9209 337.96 62.9449 337.4C61.9849 336.84 61.2249 336.08 60.6649 335.12C60.1049 334.16 59.8249 333.088 59.8249 331.904C59.8249 330.72 60.1049 329.648 60.6649 328.688C61.2249 327.728 61.9849 326.968 62.9449 326.408C63.9209 325.832 65.0009 325.544 66.1849 325.544C67.3849 325.544 68.4649 325.832 69.4249 326.408C70.3849 326.968 71.1449 327.728 71.7049 328.688C72.2649 329.648 72.5449 330.72 72.5449 331.904C72.5449 333.088 72.2649 334.16 71.7049 335.12C71.1449 336.08 70.3849 336.84 69.4249 337.4C68.4649 337.96 67.3849 338.24 66.1849 338.24ZM66.1849 336.128C66.9369 336.128 67.6169 335.944 68.2249 335.576C68.8329 335.192 69.3129 334.68 69.6649 334.04C70.0169 333.4 70.1929 332.68 70.1929 331.88C70.1929 331.096 70.0089 330.392 69.6409 329.768C69.2889 329.128 68.8089 328.616 68.2009 328.232C67.6089 327.848 66.9369 327.656 66.1849 327.656C65.4329 327.656 64.7529 327.848 64.1449 328.232C63.5529 328.616 63.0729 329.128 62.7049 329.768C62.3529 330.392 62.1769 331.096 62.1769 331.88C62.1769 332.68 62.3529 333.4 62.7049 334.04C63.0569 334.68 63.5369 335.192 64.1449 335.576C64.7529 335.944 65.4329 336.128 66.1849 336.128ZM80.6224 338.24C79.4384 338.24 78.3584 337.96 77.3824 337.4C76.4224 336.84 75.6624 336.08 75.1024 335.12C74.5424 334.16 74.2624 333.088 74.2624 331.904C74.2624 330.72 74.5424 329.648 75.1024 328.688C75.6624 327.728 76.4224 326.968 77.3824 326.408C78.3584 325.832 79.4384 325.544 80.6224 325.544C81.8224 325.544 82.9024 325.832 83.8624 326.408C84.8224 326.968 85.5824 327.728 86.1424 328.688C86.7024 329.648 86.9824 330.72 86.9824 331.904C86.9824 333.088 86.7024 334.16 86.1424 335.12C85.5824 336.08 84.8224 336.84 83.8624 337.4C82.9024 337.96 81.8224 338.24 80.6224 338.24ZM80.6224 336.128C81.3744 336.128 82.0544 335.944 82.6624 335.576C83.2704 335.192 83.7504 334.68 84.1024 334.04C84.4544 333.4 84.6304 332.68 84.6304 331.88C84.6304 331.096 84.4464 330.392 84.0784 329.768C83.7264 329.128 83.2464 328.616 82.6384 328.232C82.0464 327.848 81.3744 327.656 80.6224 327.656C79.8704 327.656 79.1904 327.848 78.5824 328.232C77.9904 328.616 77.5104 329.128 77.1424 329.768C76.7904 330.392 76.6144 331.096 76.6144 331.88C76.6144 332.68 76.7904 333.4 77.1424 334.04C77.4944 334.68 77.9744 335.192 78.5824 335.576C79.1904 335.944 79.8704 336.128 80.6224 336.128ZM95.2999 343.136C94.4039 343.136 93.5319 343.032 92.6839 342.824C91.8359 342.616 91.0679 342.32 90.3799 341.936L91.2919 340.064C92.0119 340.432 92.6839 340.696 93.3079 340.856C93.9479 341.032 94.5879 341.12 95.2279 341.12C96.2999 341.12 97.1079 340.872 97.6519 340.376C98.2119 339.88 98.4919 339.152 98.4919 338.192V336.8C97.4199 337.648 96.1959 338.072 94.8199 338.072C93.6999 338.072 92.6679 337.8 91.7239 337.256C90.7959 336.696 90.0599 335.944 89.5159 335C88.9719 334.04 88.6999 332.984 88.6999 331.832C88.6999 330.664 88.9719 329.608 89.5159 328.664C90.0759 327.704 90.8199 326.952 91.7479 326.408C92.6919 325.848 93.7479 325.568 94.9159 325.568C95.5719 325.568 96.2039 325.68 96.8119 325.904C97.4359 326.112 98.0039 326.416 98.5159 326.816V325.784H100.892V338.192C100.892 339.776 100.404 340.992 99.4279 341.84C98.4679 342.704 97.0919 343.136 95.2999 343.136ZM95.1319 336.008C95.8359 336.008 96.4759 335.888 97.0519 335.648C97.6279 335.392 98.1079 335.032 98.4919 334.568V329.096C98.1079 328.648 97.6199 328.296 97.0279 328.04C96.4519 327.784 95.8199 327.656 95.1319 327.656C94.3639 327.656 93.6679 327.84 93.0439 328.208C92.4359 328.576 91.9479 329.08 91.5799 329.72C91.2279 330.344 91.0519 331.048 91.0519 331.832C91.0519 332.616 91.2279 333.328 91.5799 333.968C91.9479 334.592 92.4359 335.088 93.0439 335.456C93.6679 335.824 94.3639 336.008 95.1319 336.008ZM103.713 338V321.2L106.113 320.744V338H103.713ZM114.795 338.216C113.595 338.216 112.507 337.936 111.531 337.376C110.571 336.816 109.803 336.056 109.227 335.096C108.667 334.136 108.387 333.064 108.387 331.88C108.387 330.712 108.659 329.656 109.203 328.712C109.747 327.752 110.483 326.992 111.411 326.432C112.339 325.856 113.371 325.568 114.507 325.568C115.643 325.568 116.651 325.856 117.531 326.432C118.411 326.992 119.107 327.76 119.619 328.736C120.147 329.696 120.411 330.784 120.411 332V332.672H110.787C110.915 333.344 111.163 333.944 111.531 334.472C111.915 335 112.395 335.416 112.971 335.72C113.563 336.024 114.203 336.176 114.891 336.176C115.483 336.176 116.051 336.088 116.595 335.912C117.155 335.72 117.619 335.448 117.987 335.096L119.523 336.608C118.803 337.152 118.059 337.56 117.291 337.832C116.539 338.088 115.707 338.216 114.795 338.216ZM110.811 330.872H118.035C117.939 330.232 117.715 329.672 117.363 329.192C117.027 328.696 116.603 328.312 116.091 328.04C115.595 327.752 115.051 327.608 114.459 327.608C113.851 327.608 113.291 327.744 112.779 328.016C112.267 328.288 111.835 328.672 111.483 329.168C111.147 329.648 110.923 330.216 110.811 330.872ZM132.609 338V323.432H126.705V321.2H141.033V323.432H135.129V338H132.609ZM144.163 338.216C143.283 338.216 142.507 338.064 141.835 337.76C141.163 337.44 140.635 337 140.251 336.44C139.867 335.88 139.675 335.232 139.675 334.496C139.675 333.344 140.115 332.44 140.995 331.784C141.875 331.112 143.083 330.776 144.619 330.776C145.819 330.776 146.931 331.008 147.955 331.472V330.176C147.955 329.296 147.699 328.64 147.187 328.208C146.691 327.776 145.955 327.56 144.979 327.56C144.419 327.56 143.835 327.648 143.227 327.824C142.619 327.984 141.939 328.24 141.187 328.592L140.299 326.792C141.227 326.36 142.091 326.048 142.891 325.856C143.691 325.648 144.499 325.544 145.315 325.544C146.899 325.544 148.123 325.92 148.987 326.672C149.867 327.424 150.307 328.496 150.307 329.888V338H147.955V336.944C147.411 337.376 146.827 337.696 146.203 337.904C145.579 338.112 144.899 338.216 144.163 338.216ZM141.979 334.448C141.979 335.04 142.227 335.52 142.723 335.888C143.235 336.256 143.899 336.44 144.715 336.44C145.355 336.44 145.939 336.344 146.467 336.152C147.011 335.96 147.507 335.664 147.955 335.264V333.2C147.491 332.928 147.003 332.736 146.491 332.624C145.995 332.496 145.435 332.432 144.811 332.432C143.931 332.432 143.235 332.616 142.723 332.984C142.227 333.336 141.979 333.824 141.979 334.448ZM159.12 343.136C158.224 343.136 157.352 343.032 156.504 342.824C155.656 342.616 154.888 342.32 154.2 341.936L155.112 340.064C155.832 340.432 156.504 340.696 157.128 340.856C157.768 341.032 158.408 341.12 159.048 341.12C160.12 341.12 160.928 340.872 161.472 340.376C162.032 339.88 162.312 339.152 162.312 338.192V336.8C161.24 337.648 160.016 338.072 158.64 338.072C157.52 338.072 156.488 337.8 155.544 337.256C154.616 336.696 153.88 335.944 153.336 335C152.792 334.04 152.52 332.984 152.52 331.832C152.52 330.664 152.792 329.608 153.336 328.664C153.896 327.704 154.64 326.952 155.568 326.408C156.512 325.848 157.568 325.568 158.736 325.568C159.392 325.568 160.024 325.68 160.632 325.904C161.256 326.112 161.824 326.416 162.336 326.816V325.784H164.712V338.192C164.712 339.776 164.224 340.992 163.248 341.84C162.288 342.704 160.912 343.136 159.12 343.136ZM158.952 336.008C159.656 336.008 160.296 335.888 160.872 335.648C161.448 335.392 161.928 335.032 162.312 334.568V329.096C161.928 328.648 161.44 328.296 160.848 328.04C160.272 327.784 159.64 327.656 158.952 327.656C158.184 327.656 157.488 327.84 156.864 328.208C156.256 328.576 155.768 329.08 155.4 329.72C155.048 330.344 154.872 331.048 154.872 331.832C154.872 332.616 155.048 333.328 155.4 333.968C155.768 334.592 156.256 335.088 156.864 335.456C157.488 335.824 158.184 336.008 158.952 336.008ZM172.837 338V321.2H176.221L181.477 331.952L186.733 321.2H190.093V338H187.717V324.272L181.453 336.8L175.189 324.272V338H172.837ZM196.85 338.216C195.97 338.216 195.194 338.064 194.522 337.76C193.85 337.44 193.322 337 192.938 336.44C192.554 335.88 192.362 335.232 192.362 334.496C192.362 333.344 192.802 332.44 193.682 331.784C194.562 331.112 195.77 330.776 197.306 330.776C198.506 330.776 199.618 331.008 200.642 331.472V330.176C200.642 329.296 200.386 328.64 199.874 328.208C199.378 327.776 198.642 327.56 197.666 327.56C197.106 327.56 196.522 327.648 195.914 327.824C195.306 327.984 194.626 328.24 193.874 328.592L192.986 326.792C193.914 326.36 194.778 326.048 195.578 325.856C196.378 325.648 197.186 325.544 198.002 325.544C199.586 325.544 200.81 325.92 201.674 326.672C202.554 327.424 202.994 328.496 202.994 329.888V338H200.642V336.944C200.098 337.376 199.514 337.696 198.89 337.904C198.266 338.112 197.586 338.216 196.85 338.216ZM194.666 334.448C194.666 335.04 194.914 335.52 195.41 335.888C195.922 336.256 196.586 336.44 197.402 336.44C198.042 336.44 198.626 336.344 199.154 336.152C199.698 335.96 200.194 335.664 200.642 335.264V333.2C200.178 332.928 199.69 332.736 199.178 332.624C198.682 332.496 198.122 332.432 197.498 332.432C196.618 332.432 195.922 332.616 195.41 332.984C194.914 333.336 194.666 333.824 194.666 334.448ZM205.76 338V325.784H208.16V327.032C209.104 326.04 210.328 325.544 211.832 325.544C212.776 325.544 213.6 325.744 214.304 326.144C215.024 326.544 215.584 327.104 215.984 327.824C216.4 328.544 216.608 329.376 216.608 330.32V338H214.208V330.728C214.208 329.768 213.936 329.016 213.392 328.472C212.864 327.912 212.12 327.632 211.16 327.632C210.52 327.632 209.944 327.768 209.432 328.04C208.92 328.312 208.496 328.704 208.16 329.216V338H205.76ZM223.241 338.216C222.361 338.216 221.585 338.064 220.913 337.76C220.241 337.44 219.713 337 219.329 336.44C218.945 335.88 218.753 335.232 218.753 334.496C218.753 333.344 219.193 332.44 220.073 331.784C220.953 331.112 222.161 330.776 223.697 330.776C224.897 330.776 226.009 331.008 227.033 331.472V330.176C227.033 329.296 226.777 328.64 226.265 328.208C225.769 327.776 225.033 327.56 224.057 327.56C223.497 327.56 222.913 327.648 222.305 327.824C221.697 327.984 221.017 328.24 220.265 328.592L219.377 326.792C220.305 326.36 221.169 326.048 221.969 325.856C222.769 325.648 223.577 325.544 224.393 325.544C225.977 325.544 227.201 325.92 228.065 326.672C228.945 327.424 229.385 328.496 229.385 329.888V338H227.033V336.944C226.489 337.376 225.905 337.696 225.281 337.904C224.657 338.112 223.977 338.216 223.241 338.216ZM221.057 334.448C221.057 335.04 221.305 335.52 221.801 335.888C222.313 336.256 222.977 336.44 223.793 336.44C224.433 336.44 225.017 336.344 225.545 336.152C226.089 335.96 226.585 335.664 227.033 335.264V333.2C226.569 332.928 226.081 332.736 225.569 332.624C225.073 332.496 224.513 332.432 223.889 332.432C223.009 332.432 222.313 332.616 221.801 332.984C221.305 333.336 221.057 333.824 221.057 334.448ZM238.198 343.136C237.302 343.136 236.43 343.032 235.582 342.824C234.734 342.616 233.966 342.32 233.278 341.936L234.19 340.064C234.91 340.432 235.582 340.696 236.206 340.856C236.846 341.032 237.486 341.12 238.126 341.12C239.198 341.12 240.006 340.872 240.55 340.376C241.11 339.88 241.39 339.152 241.39 338.192V336.8C240.318 337.648 239.094 338.072 237.718 338.072C236.598 338.072 235.566 337.8 234.622 337.256C233.694 336.696 232.958 335.944 232.414 335C231.87 334.04 231.598 332.984 231.598 331.832C231.598 330.664 231.87 329.608 232.414 328.664C232.974 327.704 233.718 326.952 234.646 326.408C235.59 325.848 236.646 325.568 237.814 325.568C238.47 325.568 239.102 325.68 239.71 325.904C240.334 326.112 240.902 326.416 241.414 326.816V325.784H243.79V338.192C243.79 339.776 243.302 340.992 242.326 341.84C241.366 342.704 239.99 343.136 238.198 343.136ZM238.03 336.008C238.734 336.008 239.374 335.888 239.95 335.648C240.526 335.392 241.006 335.032 241.39 334.568V329.096C241.006 328.648 240.518 328.296 239.926 328.04C239.35 327.784 238.718 327.656 238.03 327.656C237.262 327.656 236.566 327.84 235.942 328.208C235.334 328.576 234.846 329.08 234.478 329.72C234.126 330.344 233.95 331.048 233.95 331.832C233.95 332.616 234.126 333.328 234.478 333.968C234.846 334.592 235.334 335.088 235.942 335.456C236.566 335.824 237.262 336.008 238.03 336.008ZM252.467 338.216C251.267 338.216 250.179 337.936 249.203 337.376C248.243 336.816 247.475 336.056 246.899 335.096C246.339 334.136 246.059 333.064 246.059 331.88C246.059 330.712 246.331 329.656 246.875 328.712C247.419 327.752 248.155 326.992 249.083 326.432C250.011 325.856 251.043 325.568 252.179 325.568C253.315 325.568 254.323 325.856 255.203 326.432C256.083 326.992 256.779 327.76 257.291 328.736C257.819 329.696 258.083 330.784 258.083 332V332.672H248.459C248.587 333.344 248.835 333.944 249.203 334.472C249.587 335 250.067 335.416 250.643 335.72C251.235 336.024 251.875 336.176 252.563 336.176C253.155 336.176 253.723 336.088 254.267 335.912C254.827 335.72 255.291 335.448 255.659 335.096L257.195 336.608C256.475 337.152 255.731 337.56 254.963 337.832C254.211 338.088 253.379 338.216 252.467 338.216ZM248.483 330.872H255.707C255.611 330.232 255.387 329.672 255.035 329.192C254.699 328.696 254.275 328.312 253.763 328.04C253.267 327.752 252.723 327.608 252.131 327.608C251.523 327.608 250.963 327.744 250.451 328.016C249.939 328.288 249.507 328.672 249.155 329.168C248.819 329.648 248.595 330.216 248.483 330.872ZM260.369 338V325.784H262.769V327.344C263.153 326.768 263.625 326.32 264.185 326C264.761 325.664 265.409 325.496 266.129 325.496C266.625 325.512 267.033 325.584 267.353 325.712V327.872C267.129 327.776 266.897 327.712 266.657 327.68C266.417 327.632 266.177 327.608 265.937 327.608C265.233 327.608 264.609 327.8 264.065 328.184C263.521 328.552 263.089 329.096 262.769 329.816V338H260.369ZM271.363 342.92L281.347 321.2H283.699L273.715 342.92H271.363ZM299.19 338.264C297.958 338.264 296.806 338.04 295.734 337.592C294.678 337.144 293.75 336.528 292.95 335.744C292.15 334.944 291.526 334.024 291.078 332.984C290.63 331.928 290.406 330.8 290.406 329.6C290.406 328.4 290.622 327.28 291.054 326.24C291.502 325.184 292.126 324.264 292.926 323.48C293.726 322.68 294.654 322.056 295.71 321.608C296.766 321.16 297.91 320.936 299.142 320.936C300.47 320.936 301.726 321.192 302.91 321.704C304.094 322.216 305.094 322.928 305.91 323.84L304.182 325.52C303.574 324.8 302.822 324.248 301.926 323.864C301.046 323.464 300.118 323.264 299.142 323.264C298.262 323.264 297.446 323.424 296.694 323.744C295.958 324.064 295.31 324.512 294.75 325.088C294.19 325.648 293.75 326.312 293.43 327.08C293.126 327.848 292.974 328.688 292.974 329.6C292.974 330.496 293.126 331.336 293.43 332.12C293.75 332.888 294.19 333.56 294.75 334.136C295.326 334.712 295.99 335.16 296.742 335.48C297.494 335.8 298.31 335.96 299.19 335.96C300.182 335.96 301.078 335.752 301.878 335.336C302.694 334.92 303.358 334.352 303.87 333.632C304.382 332.896 304.694 332.072 304.806 331.16H299.214V328.952H307.446V329.816C307.446 331.016 307.238 332.128 306.822 333.152C306.406 334.176 305.822 335.072 305.07 335.84C304.334 336.608 303.462 337.208 302.454 337.64C301.446 338.056 300.358 338.264 299.19 338.264ZM315.607 338.24C314.423 338.24 313.343 337.96 312.367 337.4C311.407 336.84 310.647 336.08 310.087 335.12C309.527 334.16 309.247 333.088 309.247 331.904C309.247 330.72 309.527 329.648 310.087 328.688C310.647 327.728 311.407 326.968 312.367 326.408C313.343 325.832 314.423 325.544 315.607 325.544C316.807 325.544 317.887 325.832 318.847 326.408C319.807 326.968 320.567 327.728 321.127 328.688C321.687 329.648 321.967 330.72 321.967 331.904C321.967 333.088 321.687 334.16 321.127 335.12C320.567 336.08 319.807 336.84 318.847 337.4C317.887 337.96 316.807 338.24 315.607 338.24ZM315.607 336.128C316.359 336.128 317.039 335.944 317.647 335.576C318.255 335.192 318.735 334.68 319.087 334.04C319.439 333.4 319.615 332.68 319.615 331.88C319.615 331.096 319.431 330.392 319.063 329.768C318.711 329.128 318.231 328.616 317.623 328.232C317.031 327.848 316.359 327.656 315.607 327.656C314.855 327.656 314.175 327.848 313.567 328.232C312.975 328.616 312.495 329.128 312.127 329.768C311.775 330.392 311.599 331.096 311.599 331.88C311.599 332.68 311.775 333.4 312.127 334.04C312.479 334.68 312.959 335.192 313.567 335.576C314.175 335.944 314.855 336.128 315.607 336.128ZM330.044 338.24C328.86 338.24 327.78 337.96 326.804 337.4C325.844 336.84 325.084 336.08 324.524 335.12C323.964 334.16 323.684 333.088 323.684 331.904C323.684 330.72 323.964 329.648 324.524 328.688C325.084 327.728 325.844 326.968 326.804 326.408C327.78 325.832 328.86 325.544 330.044 325.544C331.244 325.544 332.324 325.832 333.284 326.408C334.244 326.968 335.004 327.728 335.564 328.688C336.124 329.648 336.404 330.72 336.404 331.904C336.404 333.088 336.124 334.16 335.564 335.12C335.004 336.08 334.244 336.84 333.284 337.4C332.324 337.96 331.244 338.24 330.044 338.24ZM330.044 336.128C330.796 336.128 331.476 335.944 332.084 335.576C332.692 335.192 333.172 334.68 333.524 334.04C333.876 333.4 334.052 332.68 334.052 331.88C334.052 331.096 333.868 330.392 333.5 329.768C333.148 329.128 332.668 328.616 332.06 328.232C331.468 327.848 330.796 327.656 330.044 327.656C329.292 327.656 328.612 327.848 328.004 328.232C327.412 328.616 326.932 329.128 326.564 329.768C326.212 330.392 326.036 331.096 326.036 331.88C326.036 332.68 326.212 333.4 326.564 334.04C326.916 334.68 327.396 335.192 328.004 335.576C328.612 335.944 329.292 336.128 330.044 336.128ZM344.722 343.136C343.826 343.136 342.954 343.032 342.106 342.824C341.258 342.616 340.49 342.32 339.802 341.936L340.714 340.064C341.434 340.432 342.106 340.696 342.73 340.856C343.37 341.032 344.01 341.12 344.65 341.12C345.722 341.12 346.53 340.872 347.074 340.376C347.634 339.88 347.914 339.152 347.914 338.192V336.8C346.842 337.648 345.618 338.072 344.242 338.072C343.122 338.072 342.09 337.8 341.146 337.256C340.218 336.696 339.482 335.944 338.938 335C338.394 334.04 338.122 332.984 338.122 331.832C338.122 330.664 338.394 329.608 338.938 328.664C339.498 327.704 340.242 326.952 341.17 326.408C342.114 325.848 343.17 325.568 344.338 325.568C344.994 325.568 345.626 325.68 346.234 325.904C346.858 326.112 347.426 326.416 347.938 326.816V325.784H350.314V338.192C350.314 339.776 349.826 340.992 348.85 341.84C347.89 342.704 346.514 343.136 344.722 343.136ZM344.554 336.008C345.258 336.008 345.898 335.888 346.474 335.648C347.05 335.392 347.53 335.032 347.914 334.568V329.096C347.53 328.648 347.042 328.296 346.45 328.04C345.874 327.784 345.242 327.656 344.554 327.656C343.786 327.656 343.09 327.84 342.466 328.208C341.858 328.576 341.37 329.08 341.002 329.72C340.65 330.344 340.474 331.048 340.474 331.832C340.474 332.616 340.65 333.328 341.002 333.968C341.37 334.592 341.858 335.088 342.466 335.456C343.09 335.824 343.786 336.008 344.554 336.008ZM353.135 338V321.2L355.535 320.744V338H353.135ZM364.217 338.216C363.017 338.216 361.929 337.936 360.953 337.376C359.993 336.816 359.225 336.056 358.649 335.096C358.089 334.136 357.809 333.064 357.809 331.88C357.809 330.712 358.081 329.656 358.625 328.712C359.169 327.752 359.905 326.992 360.833 326.432C361.761 325.856 362.793 325.568 363.929 325.568C365.065 325.568 366.073 325.856 366.953 326.432C367.833 326.992 368.529 327.76 369.041 328.736C369.569 329.696 369.833 330.784 369.833 332V332.672H360.209C360.337 333.344 360.585 333.944 360.953 334.472C361.337 335 361.817 335.416 362.393 335.72C362.985 336.024 363.625 336.176 364.313 336.176C364.905 336.176 365.473 336.088 366.017 335.912C366.577 335.72 367.041 335.448 367.409 335.096L368.945 336.608C368.225 337.152 367.481 337.56 366.713 337.832C365.961 338.088 365.129 338.216 364.217 338.216ZM360.233 330.872H367.457C367.361 330.232 367.137 329.672 366.785 329.192C366.449 328.696 366.025 328.312 365.513 328.04C365.017 327.752 364.473 327.608 363.881 327.608C363.273 327.608 362.713 327.744 362.201 328.016C361.689 328.288 361.257 328.672 360.905 329.168C360.569 329.648 360.345 330.216 360.233 330.872ZM375.743 338L382.679 321.2H385.655L392.519 338H389.783L387.839 333.08H380.327L378.359 338H375.743ZM381.143 330.992H387.023L384.095 323.6L381.143 330.992ZM393.963 338V325.784H396.363V327.032C397.307 326.04 398.531 325.544 400.035 325.544C400.979 325.544 401.803 325.744 402.507 326.144C403.227 326.544 403.787 327.104 404.187 327.824C404.603 328.544 404.811 329.376 404.811 330.32V338H402.411V330.728C402.411 329.768 402.139 329.016 401.595 328.472C401.067 327.912 400.323 327.632 399.363 327.632C398.723 327.632 398.147 327.768 397.635 328.04C397.123 328.312 396.699 328.704 396.363 329.216V338H393.963ZM411.444 338.216C410.564 338.216 409.788 338.064 409.116 337.76C408.444 337.44 407.916 337 407.532 336.44C407.148 335.88 406.956 335.232 406.956 334.496C406.956 333.344 407.396 332.44 408.276 331.784C409.156 331.112 410.364 330.776 411.9 330.776C413.1 330.776 414.212 331.008 415.236 331.472V330.176C415.236 329.296 414.98 328.64 414.468 328.208C413.972 327.776 413.236 327.56 412.26 327.56C411.7 327.56 411.116 327.648 410.508 327.824C409.9 327.984 409.22 328.24 408.468 328.592L407.58 326.792C408.508 326.36 409.372 326.048 410.172 325.856C410.972 325.648 411.78 325.544 412.596 325.544C414.18 325.544 415.404 325.92 416.268 326.672C417.148 327.424 417.588 328.496 417.588 329.888V338H415.236V336.944C414.692 337.376 414.108 337.696 413.484 337.904C412.86 338.112 412.18 338.216 411.444 338.216ZM409.26 334.448C409.26 335.04 409.508 335.52 410.004 335.888C410.516 336.256 411.18 336.44 411.996 336.44C412.636 336.44 413.22 336.344 413.748 336.152C414.292 335.96 414.788 335.664 415.236 335.264V333.2C414.772 332.928 414.284 332.736 413.772 332.624C413.276 332.496 412.716 332.432 412.092 332.432C411.212 332.432 410.516 332.616 410.004 332.984C409.508 333.336 409.26 333.824 409.26 334.448ZM420.354 338V321.2L422.754 320.744V338H420.354ZM426.396 343.16C426.14 343.16 425.9 343.144 425.676 343.112C425.452 343.096 425.268 343.064 425.124 343.016V340.904C425.412 340.968 425.764 341 426.18 341C427.3 341 428.108 340.4 428.604 339.2L429.132 338.024L424.236 325.784H426.9L430.452 335.096L434.388 325.784H436.98L431.076 339.512C430.692 340.376 430.284 341.072 429.852 341.6C429.42 342.144 428.924 342.536 428.364 342.776C427.804 343.032 427.148 343.16 426.396 343.16ZM444.054 338.216C442.87 338.216 441.966 337.944 441.342 337.4C440.718 336.84 440.406 336.032 440.406 334.976V327.8H437.814V325.784H440.406V322.664L442.782 322.088V325.784H446.382V327.8H442.782V334.424C442.782 335.048 442.918 335.496 443.19 335.768C443.478 336.024 443.942 336.152 444.582 336.152C444.918 336.152 445.214 336.128 445.47 336.08C445.742 336.032 446.03 335.96 446.334 335.864V337.88C446.014 337.992 445.638 338.072 445.206 338.12C444.79 338.184 444.406 338.216 444.054 338.216ZM448.15 338V325.784H450.55V338H448.15ZM449.35 323.816C448.95 323.816 448.606 323.672 448.318 323.384C448.03 323.08 447.886 322.728 447.886 322.328C447.886 321.912 448.03 321.568 448.318 321.296C448.606 321.008 448.95 320.864 449.35 320.864C449.766 320.864 450.118 321.008 450.406 321.296C450.694 321.568 450.838 321.912 450.838 322.328C450.838 322.728 450.694 323.08 450.406 323.384C450.118 323.672 449.766 323.816 449.35 323.816ZM459.113 338.216C457.945 338.216 456.881 337.936 455.921 337.376C454.961 336.816 454.201 336.056 453.641 335.096C453.097 334.136 452.825 333.064 452.825 331.88C452.825 330.696 453.105 329.632 453.665 328.688C454.225 327.728 454.977 326.968 455.921 326.408C456.881 325.832 457.945 325.544 459.113 325.544C460.041 325.544 460.929 325.72 461.777 326.072C462.641 326.424 463.385 326.92 464.009 327.56L462.521 329.216C462.057 328.704 461.537 328.32 460.961 328.064C460.385 327.808 459.785 327.68 459.161 327.68C458.425 327.68 457.753 327.864 457.145 328.232C456.553 328.6 456.081 329.104 455.729 329.744C455.377 330.384 455.201 331.096 455.201 331.88C455.201 332.664 455.377 333.376 455.729 334.016C456.081 334.656 456.561 335.168 457.169 335.552C457.777 335.92 458.457 336.104 459.209 336.104C459.833 336.104 460.417 335.984 460.961 335.744C461.505 335.488 462.017 335.12 462.497 334.64L463.961 336.176C463.321 336.832 462.577 337.336 461.729 337.688C460.897 338.04 460.025 338.216 459.113 338.216ZM470.21 338.24C469.154 338.24 468.162 338.088 467.234 337.784C466.322 337.464 465.53 337.016 464.858 336.44L466.178 334.856C466.802 335.352 467.442 335.736 468.098 336.008C468.77 336.264 469.45 336.392 470.138 336.392C471.002 336.392 471.706 336.224 472.25 335.888C472.794 335.552 473.066 335.112 473.066 334.568C473.066 334.12 472.906 333.768 472.586 333.512C472.266 333.256 471.77 333.08 471.098 332.984L468.89 332.672C467.674 332.496 466.762 332.12 466.154 331.544C465.546 330.968 465.242 330.2 465.242 329.24C465.242 328.504 465.442 327.864 465.842 327.32C466.242 326.76 466.802 326.328 467.522 326.024C468.242 325.704 469.082 325.544 470.042 325.544C470.922 325.544 471.77 325.672 472.586 325.928C473.402 326.184 474.186 326.584 474.938 327.128L473.714 328.712C473.042 328.264 472.386 327.936 471.746 327.728C471.122 327.52 470.49 327.416 469.85 327.416C469.114 327.416 468.522 327.576 468.074 327.896C467.626 328.2 467.402 328.6 467.402 329.096C467.402 329.544 467.554 329.896 467.858 330.152C468.178 330.392 468.698 330.56 469.418 330.656L471.626 330.968C472.842 331.144 473.762 331.52 474.386 332.096C475.01 332.656 475.322 333.416 475.322 334.376C475.322 335.112 475.098 335.776 474.65 336.368C474.202 336.944 473.594 337.4 472.826 337.736C472.058 338.072 471.186 338.24 470.21 338.24ZM482.182 338V325.784H484.582V326.96C485.494 326.016 486.638 325.544 488.014 325.544C488.846 325.544 489.582 325.728 490.222 326.096C490.878 326.464 491.398 326.96 491.782 327.584C492.294 326.912 492.894 326.408 493.582 326.072C494.27 325.72 495.046 325.544 495.91 325.544C496.822 325.544 497.614 325.744 498.286 326.144C498.974 326.544 499.51 327.104 499.894 327.824C500.294 328.544 500.494 329.376 500.494 330.32V338H498.094V330.728C498.094 329.768 497.838 329.016 497.326 328.472C496.83 327.912 496.15 327.632 495.286 327.632C494.694 327.632 494.158 327.768 493.678 328.04C493.198 328.312 492.782 328.728 492.43 329.288C492.462 329.448 492.486 329.616 492.502 329.792C492.518 329.968 492.526 330.144 492.526 330.32V338H490.15V330.728C490.15 329.768 489.894 329.016 489.382 328.472C488.886 327.912 488.206 327.632 487.342 327.632C486.766 327.632 486.246 327.76 485.782 328.016C485.318 328.256 484.918 328.624 484.582 329.12V338H482.182ZM509.06 338.24C507.876 338.24 506.796 337.96 505.82 337.4C504.86 336.84 504.1 336.08 503.54 335.12C502.98 334.16 502.7 333.088 502.7 331.904C502.7 330.72 502.98 329.648 503.54 328.688C504.1 327.728 504.86 326.968 505.82 326.408C506.796 325.832 507.876 325.544 509.06 325.544C510.26 325.544 511.34 325.832 512.3 326.408C513.26 326.968 514.02 327.728 514.58 328.688C515.14 329.648 515.42 330.72 515.42 331.904C515.42 333.088 515.14 334.16 514.58 335.12C514.02 336.08 513.26 336.84 512.3 337.4C511.34 337.96 510.26 338.24 509.06 338.24ZM509.06 336.128C509.812 336.128 510.492 335.944 511.1 335.576C511.708 335.192 512.188 334.68 512.54 334.04C512.892 333.4 513.068 332.68 513.068 331.88C513.068 331.096 512.884 330.392 512.516 329.768C512.164 329.128 511.684 328.616 511.076 328.232C510.484 327.848 509.812 327.656 509.06 327.656C508.308 327.656 507.628 327.848 507.02 328.232C506.428 328.616 505.948 329.128 505.58 329.768C505.228 330.392 505.052 331.096 505.052 331.88C505.052 332.68 505.228 333.4 505.58 334.04C505.932 334.68 506.412 335.192 507.02 335.576C507.628 335.944 508.308 336.128 509.06 336.128ZM523.305 338.192C522.169 338.192 521.129 337.912 520.185 337.352C519.241 336.792 518.497 336.04 517.953 335.096C517.409 334.136 517.137 333.064 517.137 331.88C517.137 330.696 517.409 329.632 517.953 328.688C518.513 327.744 519.265 326.992 520.209 326.432C521.153 325.872 522.201 325.592 523.353 325.592C524.025 325.592 524.673 325.696 525.297 325.904C525.921 326.112 526.497 326.416 527.025 326.816V321.2L529.425 320.744V338H527.049V336.824C526.009 337.736 524.761 338.192 523.305 338.192ZM523.617 336.104C524.321 336.104 524.961 335.976 525.537 335.72C526.129 335.464 526.625 335.096 527.025 334.616V329.12C526.625 328.672 526.129 328.32 525.537 328.064C524.961 327.792 524.321 327.656 523.617 327.656C522.849 327.656 522.153 327.84 521.529 328.208C520.905 328.576 520.409 329.08 520.041 329.72C519.673 330.344 519.489 331.056 519.489 331.856C519.489 332.656 519.673 333.376 520.041 334.016C520.409 334.656 520.905 335.168 521.529 335.552C522.153 335.92 522.849 336.104 523.617 336.104ZM536.996 338.24C536.052 338.24 535.22 338.04 534.5 337.64C533.78 337.24 533.22 336.68 532.82 335.96C532.42 335.224 532.22 334.384 532.22 333.44V325.784H534.596V333.032C534.596 333.992 534.868 334.752 535.412 335.312C535.972 335.872 536.716 336.152 537.644 336.152C538.3 336.152 538.884 336.016 539.396 335.744C539.908 335.456 540.324 335.056 540.644 334.544V325.784H543.044V338H540.644V336.752C539.7 337.744 538.484 338.24 536.996 338.24ZM545.885 338V321.2L548.285 320.744V338H545.885ZM556.967 338.216C555.767 338.216 554.679 337.936 553.703 337.376C552.743 336.816 551.975 336.056 551.399 335.096C550.839 334.136 550.559 333.064 550.559 331.88C550.559 330.712 550.831 329.656 551.375 328.712C551.919 327.752 552.655 326.992 553.583 326.432C554.511 325.856 555.543 325.568 556.679 325.568C557.815 325.568 558.823 325.856 559.703 326.432C560.583 326.992 561.279 327.76 561.791 328.736C562.319 329.696 562.583 330.784 562.583 332V332.672H552.959C553.087 333.344 553.335 333.944 553.703 334.472C554.087 335 554.567 335.416 555.143 335.72C555.735 336.024 556.375 336.176 557.063 336.176C557.655 336.176 558.223 336.088 558.767 335.912C559.327 335.72 559.791 335.448 560.159 335.096L561.695 336.608C560.975 337.152 560.231 337.56 559.463 337.832C558.711 338.088 557.879 338.216 556.967 338.216ZM552.983 330.872H560.207C560.111 330.232 559.887 329.672 559.535 329.192C559.199 328.696 558.775 328.312 558.263 328.04C557.767 327.752 557.223 327.608 556.631 327.608C556.023 327.608 555.463 327.744 554.951 328.016C554.439 328.288 554.007 328.672 553.655 329.168C553.319 329.648 553.095 330.216 552.983 330.872ZM571.709 338V327.8H568.877V325.784H571.709V323.936C571.709 322.656 572.061 321.68 572.765 321.008C573.485 320.336 574.509 320 575.837 320C576.173 320 576.485 320.024 576.773 320.072C577.077 320.104 577.349 320.16 577.589 320.24V322.304C577.301 322.224 577.045 322.168 576.821 322.136C576.597 322.088 576.349 322.064 576.077 322.064C575.405 322.064 574.901 322.224 574.565 322.544C574.245 322.848 574.085 323.336 574.085 324.008V325.784H577.589V327.8H574.085V338H571.709ZM584.669 338.24C583.485 338.24 582.405 337.96 581.429 337.4C580.469 336.84 579.709 336.08 579.149 335.12C578.589 334.16 578.309 333.088 578.309 331.904C578.309 330.72 578.589 329.648 579.149 328.688C579.709 327.728 580.469 326.968 581.429 326.408C582.405 325.832 583.485 325.544 584.669 325.544C585.869 325.544 586.949 325.832 587.909 326.408C588.869 326.968 589.629 327.728 590.189 328.688C590.749 329.648 591.029 330.72 591.029 331.904C591.029 333.088 590.749 334.16 590.189 335.12C589.629 336.08 588.869 336.84 587.909 337.4C586.949 337.96 585.869 338.24 584.669 338.24ZM584.669 336.128C585.421 336.128 586.101 335.944 586.709 335.576C587.317 335.192 587.797 334.68 588.149 334.04C588.501 333.4 588.677 332.68 588.677 331.88C588.677 331.096 588.493 330.392 588.125 329.768C587.773 329.128 587.293 328.616 586.685 328.232C586.093 327.848 585.421 327.656 584.669 327.656C583.917 327.656 583.237 327.848 582.629 328.232C582.037 328.616 581.557 329.128 581.189 329.768C580.837 330.392 580.661 331.096 580.661 331.88C580.661 332.68 580.837 333.4 581.189 334.04C581.541 334.68 582.021 335.192 582.629 335.576C583.237 335.944 583.917 336.128 584.669 336.128ZM593.299 338V325.784H595.699V327.344C596.083 326.768 596.555 326.32 597.115 326C597.691 325.664 598.339 325.496 599.059 325.496C599.555 325.512 599.963 325.584 600.283 325.712V327.872C600.059 327.776 599.827 327.712 599.587 327.68C599.347 327.632 599.107 327.608 598.867 327.608C598.163 327.608 597.539 327.8 596.995 328.184C596.451 328.552 596.019 329.096 595.699 329.816V338H593.299ZM607.509 338V321.2H609.957L619.341 333.68V321.2H621.717V338H619.509L609.909 325.136V338H607.509ZM629.597 338.24C628.653 338.24 627.821 338.04 627.101 337.64C626.381 337.24 625.821 336.68 625.421 335.96C625.021 335.224 624.821 334.384 624.821 333.44V325.784H627.197V333.032C627.197 333.992 627.469 334.752 628.013 335.312C628.573 335.872 629.317 336.152 630.245 336.152C630.901 336.152 631.485 336.016 631.997 335.744C632.509 335.456 632.925 335.056 633.245 334.544V325.784H635.645V338H633.245V336.752C632.301 337.744 631.085 338.24 629.597 338.24ZM637.118 338L641.87 331.736L637.31 325.784H640.118L643.262 329.96L646.406 325.784H649.118L644.606 331.712L649.406 338H646.598L643.214 333.488L639.83 338H637.118ZM655.882 338.216C654.698 338.216 653.794 337.944 653.17 337.4C652.546 336.84 652.234 336.032 652.234 334.976V327.8H649.642V325.784H652.234V322.664L654.61 322.088V325.784H658.21V327.8H654.61V334.424C654.61 335.048 654.746 335.496 655.018 335.768C655.306 336.024 655.77 336.152 656.41 336.152C656.746 336.152 657.042 336.128 657.298 336.08C657.57 336.032 657.858 335.96 658.162 335.864V337.88C657.842 337.992 657.466 338.072 657.034 338.12C656.618 338.184 656.234 338.216 655.882 338.216ZM670.538 338.264C669.338 338.264 668.21 338.056 667.154 337.64C666.114 337.208 665.21 336.592 664.442 335.792L666.002 334.304C666.674 335.008 667.354 335.512 668.042 335.816C668.746 336.104 669.57 336.248 670.514 336.248C671.266 336.248 671.93 336.12 672.506 335.864C673.098 335.608 673.554 335.256 673.874 334.808C674.194 334.36 674.354 333.84 674.354 333.248C674.354 332.704 674.21 332.224 673.922 331.808C673.65 331.376 673.274 331.048 672.794 330.824C672.33 330.584 671.778 330.464 671.138 330.464H669.098V328.52H670.97C671.818 328.52 672.498 328.272 673.01 327.776C673.522 327.28 673.778 326.632 673.778 325.832C673.778 325.304 673.634 324.824 673.346 324.392C673.058 323.96 672.658 323.624 672.146 323.384C671.65 323.128 671.082 323 670.442 323C669.594 323 668.842 323.152 668.186 323.456C667.546 323.744 666.882 324.256 666.194 324.992L664.634 323.504C665.402 322.672 666.29 322.04 667.298 321.608C668.306 321.16 669.37 320.936 670.49 320.936C671.578 320.936 672.538 321.136 673.37 321.536C674.218 321.936 674.882 322.496 675.362 323.216C675.858 323.92 676.106 324.72 676.106 325.616C676.106 326.496 675.81 327.288 675.218 327.992C674.642 328.68 673.882 329.16 672.938 329.432C674.074 329.672 674.978 330.152 675.65 330.872C676.322 331.576 676.658 332.408 676.658 333.368C676.658 334.312 676.394 335.152 675.866 335.888C675.354 336.624 674.634 337.208 673.706 337.64C672.778 338.056 671.722 338.264 670.538 338.264Z" fill="#19181B"/>
<path d="M256.679 55.8751H252.857V60.3228H256.679V73.3032H262.015V60.3228H266.595V55.8751H262.015V54.9199C262.015 54.2612 262.224 53.7725 262.641 53.4538C263.059 53.1352 263.674 52.9759 264.486 52.9759C264.822 52.9751 265.157 52.9916 265.491 53.0254C265.862 53.067 266.23 53.1276 266.595 53.2067V48.792C266.155 48.6887 265.71 48.6117 265.261 48.5614C264.763 48.4981 264.263 48.4651 263.761 48.4625C261.477 48.4627 259.726 49.0117 258.507 50.1097C257.288 51.2079 256.679 52.7783 256.679 54.8209V55.8751Z" fill="#02C652"/>
<path d="M163.806 69.778L166.968 65.6598C168.143 66.6509 169.452 67.4717 170.856 68.0979C172.055 68.6014 173.344 68.8591 174.645 68.8555C175.94 68.8555 176.956 68.6578 177.692 68.2625C178.428 67.8673 178.796 67.3182 178.796 66.6153C178.808 66.3257 178.746 66.0378 178.616 65.7785C178.487 65.5192 178.293 65.297 178.055 65.1327C177.56 64.7816 176.742 64.5071 175.6 64.3091L170.527 63.4196C168.659 63.0901 167.221 62.3763 166.211 61.2783C165.2 60.1801 164.695 58.7854 164.695 57.0941C164.695 54.8761 165.535 53.1245 167.216 51.8393C168.896 50.5546 171.207 49.9122 174.15 49.9121C175.917 49.9212 177.67 50.2217 179.339 50.8016C180.969 51.3318 182.491 52.1461 183.837 53.2067L180.838 57.3906C179.768 56.5264 178.574 55.8268 177.297 55.315C176.167 54.8803 174.966 54.657 173.755 54.6563C172.613 54.6563 171.707 54.8375 171.037 55.1999C170.367 55.5621 170.032 56.0508 170.032 56.666C170.021 56.9241 170.074 57.181 170.186 57.4137C170.298 57.6465 170.466 57.848 170.675 58.0001C171.103 58.3188 171.801 58.555 172.767 58.7086L177.544 59.4992C179.762 59.8509 181.448 60.5866 182.601 61.7064C183.754 62.8265 184.331 64.2761 184.331 66.0552C184.331 68.3836 183.425 70.2285 181.613 71.5901C179.801 72.9521 177.335 73.633 174.216 73.6327C172.331 73.6254 170.462 73.2794 168.698 72.6113C166.914 71.96 165.258 71.0011 163.806 69.778Z" fill="#02C652"/>
<path d="M103.583 73.3032L94.2593 50.2416H100.387L106.943 67.4059L113.631 50.2416H119.528L110.073 73.3032H103.583Z" fill="#02C652"/>
<path d="M124.503 55.8751V65.8906C124.479 66.3122 124.544 66.7342 124.695 67.1288C124.845 67.5234 125.077 67.8817 125.376 68.1803C125.675 68.4789 126.033 68.7111 126.427 68.8615C126.822 69.012 127.244 69.0773 127.666 69.0534C128.289 69.0653 128.907 68.9416 129.478 68.6909C129.992 68.4598 130.443 68.1097 130.795 67.6697V55.8751H136.133V73.3032H130.795V72.1172C130.143 72.6081 129.414 72.9867 128.638 73.2373C127.824 73.5027 126.973 73.6362 126.117 73.6327C124.075 73.6327 122.405 72.9738 121.11 71.656C119.813 70.3381 119.166 68.6578 119.166 66.6153V55.8751H124.503Z" fill="#02C652"/>
<path fill-rule="evenodd" clip-rule="evenodd" d="M152.028 73.0067C153.264 72.541 154.407 71.8607 155.405 70.9971L151.88 67.8673C151.449 68.2938 150.932 68.6248 150.365 68.839C149.733 69.0767 149.063 69.194 148.388 69.185C147.45 69.2067 146.529 68.9362 145.752 68.4109C145.024 67.9176 144.452 67.2259 144.105 66.4177H156.525V65.0997C156.537 63.8021 156.313 62.5131 155.866 61.2948C155.463 60.1788 154.841 59.1541 154.038 58.2802C153.231 57.417 152.254 56.7311 151.168 56.266C150.082 55.8009 148.911 55.5668 147.729 55.5786C146.503 55.5692 145.288 55.8044 144.155 56.2705C143.077 56.7108 142.097 57.3602 141.272 58.1812C140.449 59.0087 139.795 59.9876 139.345 61.064C138.87 62.184 138.629 63.3892 138.636 64.6056C138.629 65.8254 138.882 67.0327 139.377 68.1473C139.853 69.2301 140.536 70.2094 141.387 71.03C142.257 71.8584 143.281 72.5077 144.402 72.9407C145.587 73.4062 146.851 73.641 148.124 73.6327C149.452 73.6525 150.773 73.4407 152.028 73.0067ZM145.357 60.6523C146.012 60.1631 146.813 59.9078 147.63 59.9274C148.447 59.9141 149.244 60.1816 149.887 60.6853C150.542 61.2017 151.03 61.9012 151.287 62.6949H144.006C144.223 61.8858 144.698 61.169 145.357 60.6523Z" fill="#02C652"/>
<path d="M188.482 60.3228V67.9989C188.482 69.8221 189.014 71.2003 190.08 72.1336C191.145 73.0671 192.721 73.5338 194.807 73.5338C195.436 73.5244 196.063 73.4749 196.685 73.3857C197.31 73.3123 197.927 73.1856 198.53 73.0067V68.6909C198.131 68.8136 197.724 68.9072 197.311 68.9709C196.919 69.0273 196.522 69.0549 196.125 69.0534C195.268 69.0535 194.67 68.8942 194.33 68.5755C193.989 68.2573 193.819 67.7138 193.819 66.9448V60.3228H198.695V55.8751H193.819V50.2416L188.482 51.3947V55.8751H184.957V60.3228H188.482Z" fill="#02C652"/>
<path fill-rule="evenodd" clip-rule="evenodd" d="M199.98 64.6056C199.973 63.3859 200.226 62.1786 200.721 61.064C201.197 59.9813 201.88 59.002 202.731 58.1812C203.599 57.3543 204.616 56.7003 205.729 56.254C208.109 55.3098 210.761 55.3098 213.141 56.254C214.254 56.7004 215.271 57.3545 216.139 58.1812C216.99 59.0022 217.673 59.9814 218.149 61.064C218.638 62.1807 218.891 63.3866 218.891 64.6056C218.891 65.8247 218.638 67.0306 218.149 68.1473C217.674 69.2301 216.991 70.2093 216.139 71.03C215.274 71.8557 214.255 72.5047 213.141 72.9407C210.756 73.8634 208.113 73.8634 205.729 72.9407C204.615 72.5048 203.596 71.8558 202.731 71.03C201.879 70.2095 201.197 69.2302 200.721 68.1473C200.226 67.0327 199.973 65.8254 199.98 64.6056ZM209.435 69.0204C210 69.0297 210.56 68.9201 211.079 68.6987C211.599 68.4773 212.066 68.1491 212.45 67.7354C213.244 66.8802 213.685 65.7562 213.685 64.5891C213.685 63.422 213.244 62.2981 212.45 61.4429C212.06 61.0367 211.592 60.7135 211.074 60.4928C210.556 60.272 209.998 60.1582 209.435 60.1582C208.872 60.1582 208.315 60.272 207.797 60.4928C207.279 60.7135 206.811 61.0367 206.421 61.4429C205.626 62.2981 205.185 63.422 205.185 64.5891C205.185 65.7562 205.626 66.8802 206.421 67.7354C206.805 68.1491 207.272 68.4773 207.791 68.6987C208.31 68.9201 208.871 69.0297 209.435 69.0204Z" fill="#02C652"/>
<path d="M221.394 55.8751V73.3032L226.731 73.3032V62.2335C227.164 61.5592 227.758 61.0041 228.461 60.6193C229.171 60.2247 229.971 60.0204 230.784 60.0263C231.238 60.0256 231.691 60.0753 232.134 60.1744C232.54 60.263 232.938 60.3899 233.32 60.5534V55.9081C233.083 55.7475 232.813 55.6407 232.53 55.5951C232.126 55.5311 231.719 55.4926 231.311 55.4799C230.423 55.4675 229.543 55.6591 228.741 56.04C227.966 56.4182 227.281 56.9573 226.731 57.6212V55.8751H221.394Z" fill="#02C652"/>
<path fill-rule="evenodd" clip-rule="evenodd" d="M250.946 70.9971C249.948 71.8606 248.805 72.541 247.569 73.0067C246.314 73.4407 244.993 73.6525 243.665 73.6327C242.391 73.641 241.128 73.4061 239.942 72.9408C238.822 72.5076 237.798 71.8584 236.928 71.03C236.076 70.2094 235.394 69.2301 234.918 68.1473C234.423 67.0326 234.17 65.8254 234.177 64.6056C234.17 63.3892 234.411 62.184 234.885 61.064C235.336 59.9877 235.99 59.0088 236.812 58.1812C237.638 57.3603 238.617 56.7109 239.695 56.2705C240.829 55.8045 242.044 55.5692 243.27 55.5786C244.451 55.5667 245.622 55.8008 246.708 56.2659C247.794 56.731 248.772 57.4169 249.579 58.2802C250.382 59.154 251.004 60.1787 251.407 61.2948C251.854 62.5131 252.077 63.8021 252.066 65.0997V66.4177H239.646C239.993 67.2258 240.565 67.9174 241.293 68.4109C242.07 68.9362 242.991 69.2067 243.929 69.185C244.603 69.194 245.274 69.0767 245.905 68.839C246.473 68.6248 246.989 68.2938 247.421 67.8673L250.946 70.9971ZM243.171 59.9274C242.353 59.9078 241.553 60.1631 240.898 60.6523C240.238 61.169 239.764 61.8858 239.547 62.6949H246.828C246.57 61.9012 246.083 61.2018 245.428 60.6853C244.784 60.1816 243.988 59.914 243.171 59.9274Z" fill="#02C652"/>
<path d="M268.835 73.3032V55.8751H274.172V57.6212C274.722 56.9573 275.407 56.4182 276.181 56.04C276.984 55.6591 277.863 55.4675 278.751 55.4799C279.16 55.4926 279.567 55.5311 279.971 55.5951C280.254 55.6407 280.523 55.7475 280.761 55.9081V60.5534C280.378 60.3899 279.981 60.263 279.575 60.1744C279.132 60.0753 278.679 60.0256 278.224 60.0263C277.412 60.0204 276.612 60.2247 275.902 60.6193C275.199 61.0041 274.604 61.5592 274.172 62.2335V73.3032L268.835 73.3032Z" fill="#02C652"/>
<path fill-rule="evenodd" clip-rule="evenodd" d="M282.359 61.0639C281.863 62.1787 281.611 63.3859 281.618 64.6056C281.611 65.8254 281.863 67.0326 282.359 68.1473C282.834 69.2301 283.517 70.2093 284.369 71.03C285.234 71.8557 286.253 72.5047 287.367 72.9407C289.751 73.8633 292.394 73.8633 294.779 72.9407C295.893 72.5045 296.912 71.8555 297.777 71.03C298.628 70.2092 299.311 69.2299 299.787 68.1473C300.276 67.0306 300.528 65.8247 300.528 64.6056C300.528 63.3865 300.276 62.1807 299.787 61.0639C299.311 59.9815 298.628 59.0024 297.777 58.1812C296.909 57.3546 295.892 56.7005 294.779 56.254C292.399 55.3098 289.747 55.3098 287.367 56.254C286.254 56.7004 285.237 57.3544 284.369 58.1812C283.517 59.0022 282.835 59.9814 282.359 61.0639ZM292.717 68.6988C292.197 68.9202 291.637 69.0297 291.073 69.0204C290.508 69.0297 289.948 68.9202 289.429 68.6988C288.91 68.4774 288.443 68.1491 288.059 67.7354C287.264 66.8802 286.823 65.7562 286.823 64.5891C286.823 63.422 287.264 62.2981 288.059 61.4429C288.449 61.0367 288.917 60.7135 289.435 60.4928C289.953 60.272 290.51 60.1582 291.073 60.1582C291.636 60.1582 292.193 60.272 292.711 60.4928C293.229 60.7135 293.697 61.0367 294.087 61.4429C294.881 62.2981 295.323 63.422 295.323 64.5891C295.323 65.7562 294.881 66.8802 294.087 67.7354C293.703 68.1491 293.236 68.4774 292.717 68.6988Z" fill="#02C652"/>
<path d="M303.032 55.8751H308.369V57.0611C309.021 56.5703 309.75 56.1917 310.527 55.941C311.34 55.6756 312.191 55.5422 313.047 55.5459C315.09 55.5459 316.759 56.2047 318.055 57.5225C319.35 58.8402 319.998 60.5204 319.999 62.563V73.3032H314.661V63.2879C314.685 62.8663 314.62 62.4444 314.47 62.0498C314.319 61.6552 314.087 61.2968 313.789 60.9982C313.49 60.6996 313.132 60.4674 312.737 60.317C312.342 60.1665 311.921 60.1012 311.499 60.1252C310.876 60.1134 310.258 60.237 309.687 60.4874C309.173 60.7189 308.721 61.069 308.369 61.5088V73.3032L303.032 73.3032V55.8751Z" fill="#02C652"/>
<path d="M324.974 60.3228V67.9989C324.973 69.8221 325.506 71.2003 326.571 72.1336C327.636 73.0671 329.212 73.5338 331.299 73.5338C331.928 73.5244 332.555 73.4749 333.177 73.3856C333.801 73.3123 334.419 73.1855 335.022 73.0067V68.6909C334.623 68.8137 334.215 68.9073 333.803 68.9709C333.41 69.0273 333.013 69.0549 332.617 69.0533C331.76 69.0534 331.162 68.8941 330.821 68.5755C330.481 68.2573 330.31 67.7138 330.31 66.9448V60.3228H335.187V55.8751H330.31V50.2416L324.974 51.3947V55.8751H321.449V60.3228H324.974Z" fill="#02C652"/>
<path d="M57.9679 41.3437C57.6117 41.5652 57.2622 41.9147 56.5632 42.6137C55.8642 43.3127 55.5146 43.6623 55.2931 44.0185C54.56 45.1974 54.5601 46.6903 55.2931 47.8692C55.5146 48.2253 55.864 48.5748 56.5627 49.2735L56.5631 49.2739C57.2621 49.9729 57.6117 50.3225 57.9679 50.544C59.1468 51.2771 60.6397 51.2771 61.8186 50.544C62.1748 50.3225 62.5243 49.973 63.2234 49.2739C63.9224 48.5749 64.2719 48.2254 64.4934 47.8692C65.2265 46.6903 65.2265 45.1974 64.4934 44.0185C64.2719 43.6623 63.9224 43.3128 63.2234 42.6138C62.5244 41.9147 62.1748 41.5652 61.8186 41.3437C60.6397 40.6106 59.1468 40.6106 57.9679 41.3437Z" fill="#02C652"/>
<path d="M62.567 63.213L70.7008 55.0791C71.0378 54.7421 71.4379 54.4748 71.8782 54.2924C72.3185 54.11 72.7904 54.0162 73.267 54.0162C73.7436 54.0162 74.2155 54.11 74.6558 54.2924C75.0961 54.4748 75.4962 54.7421 75.8332 55.0791L79.9204 59.1663C79.8958 59.1908 59.9602 79.1265 59.9602 79.1265L40 59.1663C40.0542 59.1123 42.264 56.9024 44.1302 55.0362C44.467 54.6993 44.8669 54.4321 45.307 54.2498C45.7471 54.0675 46.2188 53.9737 46.6951 53.9738C47.1715 53.9738 47.6431 54.0677 48.0832 54.25C48.5233 54.4324 48.9231 54.6997 49.2598 55.0366L57.4366 63.2133C57.7735 63.5502 58.1735 63.8174 58.6136 63.9997C59.0537 64.182 59.5255 64.2758 60.0019 64.2757C60.4783 64.2757 60.95 64.1818 61.3901 63.9995C61.8303 63.8172 62.2301 63.5499 62.567 63.213Z" fill="#02C652"/>
<path d="M108.354 89.2962C106.225 89.2962 104.606 87.615 104.606 85.4094C104.606 83.1884 106.194 81.4918 108.292 81.4918C109.433 81.4918 110.498 82.0316 111.253 82.9879L112.503 81.754C111.515 80.5509 109.942 79.8414 108.292 79.8414C105.145 79.8414 102.708 82.2784 102.708 85.4094C102.708 88.525 105.13 90.962 108.292 90.962C109.896 90.962 111.454 90.2525 112.456 89.0648L111.238 87.8926C110.498 88.8026 109.48 89.2962 108.354 89.2962Z" fill="#02C652"/>
<path d="M134.744 85.4094C134.744 82.2938 132.338 79.8414 129.284 79.8414C126.23 79.8414 123.824 82.2938 123.824 85.4094C123.824 88.525 126.23 90.9774 129.284 90.9774C132.338 90.9774 134.744 88.525 134.744 85.4094ZM132.847 85.4094C132.847 87.6304 131.32 89.3116 129.299 89.3116C127.279 89.3116 125.721 87.6304 125.721 85.4094C125.721 83.1884 127.279 81.4918 129.299 81.4918C131.32 81.4918 132.847 83.1884 132.847 85.4094Z" fill="#02C652"/>
<path d="M152.551 90.0365L156.376 82.3864V90.8077H158.119V80.0111H155.713L152.567 86.5508L149.405 80.0111H146.999V90.8077H148.711V82.3401L152.551 90.0365Z" fill="#02C652"/>
<path d="M176.453 90.0365L180.278 82.3864V90.8077H182.021V80.0111H179.615L176.468 86.5508L173.306 80.0111H170.9V90.8077H172.612V82.3401L176.453 90.0365Z" fill="#02C652"/>
<path d="M203.67 86.1806V80.0111H201.819V86.1806C201.819 88.0777 200.771 89.2962 199.136 89.2962C197.501 89.2962 196.437 88.0777 196.437 86.1806V80.0111H194.586V86.1806C194.586 89.1265 196.344 90.962 199.12 90.962C201.897 90.962 203.67 89.0957 203.67 86.1806Z" fill="#02C652"/>
<path d="M216.218 80.0111V90.8077H217.961L217.93 82.7565L223.714 90.8077H225.364V80.0111H223.621L223.652 87.8464L218.022 80.0111H216.218Z" fill="#02C652"/>
<path d="M238.038 90.8077H239.889V80.0111H238.038V90.8077Z" fill="#02C652"/>
<path d="M251.678 81.6152H255.303V90.8077H257.154V81.6152H260.748V80.0111H251.678V81.6152Z" fill="#02C652"/>
<path d="M275.839 90.8077H277.69V86.5816L281.993 80.0111H279.972L276.826 84.9467L273.71 80.0111H271.566L275.839 86.5353V90.8077Z" fill="#02C652"/>
<path d="M1013.51 294.813L1060.4 247.87L959.677 146.123L911.924 193.864L1013.51 294.813Z" fill="#8AB4F8"/>
<path d="M1013.17 92.642L1060.91 44.8904L1162.15 146.123C1175.34 159.3 1175.35 180.655 1162.17 193.842C1162.16 193.853 1162.15 193.864 1162.15 193.864L1060.91 295.097L1014.08 248.045L1090.58 170.059L1013.17 92.642Z" fill="#4285F4"/>
<path d="M911.934 146.123L1013.17 44.8904C1026.36 31.7032 1047.74 31.7032 1060.92 44.8904C1074.11 58.0776 1074.11 79.4548 1060.92 92.631L959.633 193.864C946.445 207.051 925.067 207.051 911.891 193.864C898.703 180.677 898.703 159.3 911.891 146.123H911.934Z" fill="#8AB4F8"/>
<path d="M1037.41 305.08C1018.93 305.08 1003.95 290.1 1003.95 271.62C1003.95 253.141 1018.93 238.16 1037.41 238.16C1055.89 238.16 1070.88 253.141 1070.88 271.62C1070.88 290.1 1055.89 305.08 1037.41 305.08Z" fill="#246FDB"/>
<path d="M812.392 144H858.316C869.424 144 878.542 153.118 878.542 164.226V223.579H945.024C955.8 223.579 964.587 232.366 964.587 243.308V309.789H1024.44C1035.38 309.789 1044.17 318.576 1044.17 329.518V375.939C1044.17 386.882 1035.38 395.668 1024.44 396H812.226C801.118 396 792 386.882 792 375.774V164.226C792.166 153.118 801.284 144 812.392 144Z" fill="url(#paint0_linear_6135_10712)"/>
<path d="M812.392 144H858.316C869.424 144 878.542 153.118 878.542 164.226V223.579H945.024C955.8 223.579 964.587 232.366 964.587 243.308V309.789H1024.44C1035.38 309.789 1044.17 318.576 1044.17 329.518V375.939C1044.17 386.882 1035.38 395.668 1024.44 396H812.226C801.118 396 792 386.882 792 375.774V164.226C792.166 153.118 801.284 144 812.392 144Z" fill="url(#paint1_linear_6135_10712)"/>
<path d="M812.392 144H857.984C869.092 144 878.21 153.118 878.21 164.226V396H812.392C801.284 396 792.166 386.882 792.166 375.774V164.226C792.166 153.118 801.284 144 812.392 144Z" fill="#F57C00"/>
<path d="M964.587 243.474V309.789H1024.27C1035.21 309.789 1044.17 318.742 1044.17 329.684V376.105C1044.17 387.047 1035.21 396 1024.27 396H878.376V223.579H944.692C955.634 223.579 964.587 232.532 964.587 243.474Z" fill="#FFC107"/>
<path d="M878.376 223.579V396H812.558C801.45 396 792.332 386.882 792.332 375.774V309.789L878.376 223.579Z" fill="url(#paint2_linear_6135_10712)"/>
<path opacity="0.2" d="M944.692 225.237H878.376V223.579H944.692C955.634 223.579 964.587 232.532 964.587 243.474V245.132C964.587 234.189 955.634 225.237 944.692 225.237Z" fill="white"/>
<path opacity="0.2" d="M1024.27 311.447H964.587V309.789H1024.27C1035.21 309.789 1044.17 318.742 1044.17 329.684V331.342C1044.17 320.4 1035.21 311.447 1024.27 311.447Z" fill="white"/>
<path opacity="0.2" d="M812.392 144H857.984C869.092 144 878.21 153.118 878.21 164.226V165.884C878.21 154.776 869.092 145.658 857.984 145.658H812.392C801.284 145.658 792.166 154.776 792.166 165.884V164.226C792.166 153.118 801.284 144 812.392 144Z" fill="white"/>
<path opacity="0.2" d="M812.392 394.342H1024.27C1035.21 394.342 1044.17 385.389 1044.17 374.447V376.105C1044.17 387.047 1035.21 396 1024.27 396H812.558C801.45 396 792.332 386.882 792.332 375.774V374.116C792.166 385.224 801.284 394.342 812.392 394.342V394.342Z" fill="#BF360C"/>
<path d="M812.392 144H857.984C869.092 144 878.211 153.118 878.211 164.226V223.579H944.526C955.468 223.579 964.421 232.532 964.421 243.474V309.789H1024.27C1035.21 309.789 1044.17 318.742 1044.17 329.684V376.105C1044.17 387.047 1035.21 396 1024.27 396H812.392C801.284 396 792.166 386.882 792.166 375.774V164.226C792.166 153.118 801.284 144 812.392 144Z" fill="url(#paint3_linear_6135_10712)"/>
</g>
<defs>
<linearGradient id="paint0_linear_6135_10712" x1="1044.17" y1="270" x2="792" y2="270" gradientUnits="userSpaceOnUse">
<stop stop-color="white" stop-opacity="0.1"/>
<stop offset="1" stop-color="white" stop-opacity="0"/>
</linearGradient>
<linearGradient id="paint1_linear_6135_10712" x1="1044.17" y1="270" x2="792" y2="270" gradientUnits="userSpaceOnUse">
<stop stop-color="white" stop-opacity="0.1"/>
<stop offset="1" stop-color="white" stop-opacity="0"/>
</linearGradient>
<linearGradient id="paint2_linear_6135_10712" x1="921.067" y1="267.099" x2="798.2" y2="389.965" gradientUnits="userSpaceOnUse">
<stop stop-color="#BF360C" stop-opacity="0.2"/>
<stop offset="1" stop-color="#BF360C" stop-opacity="0.02"/>
</linearGradient>
<linearGradient id="paint3_linear_6135_10712" x1="959.665" y1="228.604" x2="796.65" y2="391.618" gradientUnits="userSpaceOnUse">
<stop stop-color="white" stop-opacity="0.1"/>
<stop offset="1" stop-color="white" stop-opacity="0"/>
</linearGradient>
<clipPath id="clip0_6135_10712">
<rect width="1200" height="600" fill="white"/>
</clipPath>
</defs>
</svg>
